Coordinates
version=1
nRows=5
nColumns=40
inDegrees=yes

Units are S.I. units (second, meters, Newtons, ...)
If the header above contains a line with 'inDegrees', this indicates whether rotational values are in degrees (yes) or radians (no).

endheader
time	pelvis_tilt	pelvis_list	pelvis_rotation	pelvis_tx	pelvis_ty	pelvis_tz	hip_flexion_r	hip_adduction_r	hip_rotation_r	knee_angle_r	knee_angle_r_beta	ankle_angle_r	subtalar_angle_r	mtp_angle_r	hip_flexion_l	hip_adduction_l	hip_rotation_l	knee_angle_l	knee_angle_l_beta	ankle_angle_l	subtalar_angle_l	mtp_angle_l	lumbar_extension	lumbar_bending	lumbar_rotation	arm_flex_r	arm_add_r	arm_rot_r	elbow_flex_r	pro_sup_r	wrist_flex_r	wrist_dev_r	arm_flex_l	arm_add_l	arm_rot_l	elbow_flex_l	pro_sup_l	wrist_flex_l	wrist_dev_l
      3.85000000	    -44.88023995	      5.44060699	      0.04170497	     -0.45940829	      0.59544878	     -0.93515744	    111.81865006	    -17.81028235	      4.05568727	     90.47924871	      1.57916079	     25.41890007	      0.00000000	      0.00000000	    106.03869408	    -11.75464515	     -1.67839033	     90.04344959	      1.57155467	     32.43643592	      0.00000000	      0.00000000	    -21.32878385	     -2.89071418	     -5.89191665	      6.09830763	    -49.79000213	     71.82423391	     89.44203360	     85.55492140	      0.00000000	      0.00000000	      2.22247751	    -55.16776983	     73.85885906	     96.95327050	     87.82432876	      0.00000000	      0.00000000
      3.85500000	    -44.07548530	      5.81444341	     -0.02703194	     -0.45687976	      0.59659978	     -0.93488486	    111.07111235	    -17.87896784	      4.34595803	     90.70794712	      1.58315233	     25.53596291	      0.00000000	      0.00000000	    104.92501555	    -11.88958628	     -2.15629126	     90.20272162	      1.57433449	     32.56938333	      0.00000000	      0.00000000	    -22.20366188	     -3.30331850	     -5.95362194	      6.35479678	    -49.83111000	     71.89321109	     89.25990064	     85.68193332	      0.00000000	      0.00000000	      2.49516948	    -55.08523270	     73.91445221	     96.69639441	     87.76507910	      0.00000000	      0.00000000
      3.86000000	    -43.91595964	      5.86524989	     -0.08241073	     -0.45560695	      0.59679016	     -0.93444033	    110.83743635	    -17.79425346	      4.39270258	     90.80410644	      1.58483063	     25.78247447	      0.00000000	      0.00000000	    104.64107760	    -11.95669037	     -2.17707099	     90.25976930	      1.57533016	     32.91213187	      0.00000000	      0.00000000	    -22.26153604	     -3.40938708	     -5.92800967	      6.89567368	    -49.85497925	     72.48019707	     89.18347023	     85.97106045	      0.00000000	      0.00000000	      2.70981070	    -55.11732402	     74.23531484	     96.71923177	     87.74095173	      0.00000000	      0.00000000
      3.86500000	    -44.01063576	      5.85368775	      0.12620587	     -0.45488273	      0.59675684	     -0.93464741	    110.91115187	    -17.97704149	      4.48928428	     90.86692604	      1.58592704	     25.82512280	      0.00000000	      0.00000000	    104.66415863	    -11.67615231	     -2.13756005	     90.22812987	      1.57477794	     32.95694696	      0.00000000	      0.00000000	    -22.03405694	     -3.33414732	     -6.02824997	      7.03782304	    -49.87301150	     72.64394950	     89.17741991	     86.07907782	      0.00000000	      0.00000000	      2.89484023	    -55.07114016	     74.42984876	     96.66773144	     87.73229675	      0.00000000	      0.00000000
      3.87000000	    -44.25884109	      5.38545718	      0.21480361	     -0.45427908	      0.59647625	     -0.93410481	    110.87453643	    -18.02601187	      4.05505330	     90.87417024	      1.58605348	     25.99902877	      0.00000000	      0.00000000	    105.03403880	    -11.56346231	     -1.59346168	     90.21998411	      1.57463577	     32.91913950	      0.00000000	      0.00000000	    -21.51185007	     -2.86162967	     -5.88989122	      7.44054709	    -49.82395785	     73.52315559	     89.23854939	     83.42068847	      0.00000000	      0.00000000	      3.14484702	    -55.02689135	     74.80924785	     96.55487367	     87.96754655	      0.00000000	      0.00000000
